<?xml version="1.0" encoding="utf-8"?>
<!-- Generator: Adobe Illustrator 27.0.0, SVG Export Plug-In . SVG Version: 6.00 Build 0)  -->
<svg version="1.1" id="Layer_1" xmlns="http://www.w3.org/2000/svg" xmlns:xlink="http://www.w3.org/1999/xlink" x="0px" y="0px"
	 viewBox="0 0 512 512" style="enable-background:new 0 0 512 512;" xml:space="preserve">
<g id="XMLID_3_">
	<path id="XMLID_7_" d="M415.47,374.02c37.6,0,66.09-11.65,81.38-27.64c8-8.98,17.4-22.73,10.66-33.53
		c-5.75-9.4-15.57-11.23-27.22-5.33c-11.65,5.75-24.55,8.98-39.29,8.98c-14.31,0-29.47-5.33-37.6-13.47
		c-9.82-9.82-15.15-22.31-15.15-37.04c0-3.51,2.25-4.07,6.31-0.84c10.24,8,25.54,12.07,46.02,12.07c38.02,0,71.56-25.54,71.56-64.82
		c0-41.53-39.29-72.4-98.78-72.4c-66.65,0-118,42.94-118,115.34C295.23,322.67,339.99,374.02,415.47,374.02z"/>
	<path id="XMLID_8_" d="M140.6,303.31c7.16,0,11.22,4.07,16.14,11.65l21.47,33.53c8,12.91,14.73,21.89,30.45,21.89
		c15.57,0,22.73-6.31,30.45-23.71c9.4-21.47,19.22-47.43,28.2-82.22c9.82-38.87,14.31-63,14.31-82.64s-6.31-31.29-27.64-35.36
		c-29.47-5.33-69.31-8.56-113.09-8.56s-83.63,3.09-113.09,8.56c-21.47,4.07-27.64,15.57-27.64,35.36s4.49,43.78,14.31,82.64
		c8.98,34.8,18.8,60.76,28.2,82.22c7.58,17.4,14.73,23.71,30.45,23.71c15.71,0,22.31-8.98,30.45-21.89l21.47-33.53
		C129.52,307.37,133.45,303.31,140.6,303.31z"/>
</g>
</svg>
