<?xml version="1.0" encoding="UTF-8"?>
<!DOCTYPE svg PUBLIC "-//W3C//DTD SVG 1.1//EN" "http://www.w3.org/Graphics/SVG/1.1/DTD/svg11.dtd">
<!-- Creator: CorelDRAW X7 -->
<svg xmlns="http://www.w3.org/2000/svg" xml:space="preserve" width="183.78mm" height="155.148mm" version="1.1" style="shape-rendering:geometricPrecision; text-rendering:geometricPrecision; image-rendering:optimizeQuality; fill-rule:evenodd; clip-rule:evenodd"
viewBox="0 0 18378 15515"
 xmlns:xlink="http://www.w3.org/1999/xlink">
 <defs>
  <style type="text/css">
   <![CDATA[
    .fil0 {fill:#fefefe}
   ]]>
  </style>
 </defs>
 <g id="Layer_x0020_1">
  <metadata id="CorelCorpID_0Corel-Layer"/>
  <path class="fil0" d="M8092 9259l-3254 -9228 -4758 -31 -80 15442 2942 32 86 -9907c-14,-1210 -48,-2809 -48,-2809l173 -8 857 2553 3516 10167 3244 17 3620 -10163 872 -2551 173 -8c0,0 -53,1603 -38,2813l-43 9905 2942 32 82 -15399 -4758 -31 -3321 9197c-421,1145 -1024,2990 -1024,2990l-172 9c0,0 -607,-1831 -1011,-3022z"/>
 </g>
</svg>
