<?xml version="1.0" encoding="UTF-8"?>
<!DOCTYPE svg PUBLIC "-//W3C//DTD SVG 1.1//EN" "http://www.w3.org/Graphics/SVG/1.1/DTD/svg11.dtd">
<!-- Creator: CorelDRAW X7 -->
<svg xmlns="http://www.w3.org/2000/svg" xml:space="preserve" width="126.526mm" height="158.185mm" version="1.1" style="shape-rendering:geometricPrecision; text-rendering:geometricPrecision; image-rendering:optimizeQuality; fill-rule:evenodd; clip-rule:evenodd"
viewBox="0 0 12653 15819"
 xmlns:xlink="http://www.w3.org/1999/xlink">
 <defs>
  <style type="text/css">
   <![CDATA[
    .fil0 {fill:#FEFEFE}
   ]]>
  </style>
 </defs>
 <g id="Layer_x0020_1">
  <metadata id="CorelCorpID_0Corel-Layer"/>
  <path class="fil0" d="M6073 2256c2034,32 3337,1051 3594,2812l2986 30c-229,-2973 -2753,-5101 -6429,-5098 -3675,3 -6052,1847 -6059,4399 -16,2379 1747,3981 4628,4535l2225 412c1658,310 2599,1000 2610,2124 -22,1342 -1244,2006 -3190,2012 -2032,11 -3292,-1010 -3453,-2559l-2985 -30c89,2764 2440,4900 6420,4925 4066,22 6102,-1719 6101,-4443 7,-2552 -1842,-4150 -4764,-4659l-2182 -414c-1831,-302 -2558,-1045 -2526,-2171 -12,-1167 1251,-1877 3024,-1875z"/>
 </g>
</svg>
